<mxfile host="app.diagrams.net" agent="Mozilla/5.0 (Windows NT 10.0; Win64; x64; rv:130.0) Gecko/20100101 Firefox/130.0" version="24.7.17">
  <diagram name="Page-1" id="03018318-947c-dd8e-b7a3-06fadd420f32">
    <mxGraphModel dx="1434" dy="754" grid="1" gridSize="10" guides="1" tooltips="1" connect="1" arrows="1" fold="1" page="1" pageScale="1" pageWidth="1100" pageHeight="850" background="none" math="0" shadow="0">
      <root>
        <mxCell id="0" />
        <mxCell id="1" parent="0" />
        <mxCell id="677b7b8949515195-1" value="" style="whiteSpace=wrap;html=1;rounded=0;shadow=0;labelBackgroundColor=none;strokeColor=#000000;strokeWidth=1;fillColor=#e0dbcd;fontFamily=Verdana;fontSize=12;fontColor=#000000;align=center;comic=1;glass=0;sketch=1;curveFitting=1;jiggle=2;" parent="1" vertex="1">
          <mxGeometry x="20" y="20" width="1060" height="810" as="geometry" />
        </mxCell>
        <mxCell id="677b7b8949515195-2" value="&lt;font style=&quot;font-size: 64px;&quot;&gt;LOGO&lt;/font&gt;" style="whiteSpace=wrap;html=1;rounded=0;shadow=0;labelBackgroundColor=none;strokeWidth=1;fontFamily=Cabin Sketch;fontSize=128;align=center;comic=1;fillColor=#a89f94;sketch=1;curveFitting=1;jiggle=2;fontSource=https%3A%2F%2Ffonts.googleapis.com%2Fcss%3Ffamily%3DCabin%2BSketch;" parent="1" vertex="1">
          <mxGeometry x="160" y="70" width="780" height="290" as="geometry" />
        </mxCell>
        <mxCell id="zoR_4AAuzc3p54MubUYO-4" value="Volume:&amp;nbsp;&amp;nbsp;&amp;nbsp;&amp;nbsp; " style="verticalLabelPosition=middle;shadow=0;dashed=0;align=right;html=1;verticalAlign=middle;strokeWidth=1;shape=mxgraph.mockup.forms.horSlider;strokeColor=#000000;sliderStyle=fancy;sliderPos=88.667;handleStyle=circle;fillColor2=#ddeeff;sketch=1;hachureGap=4;jiggle=2;curveFitting=1;fontFamily=Cabin Sketch;fontSource=https%3A%2F%2Ffonts.googleapis.com%2Fcss%3Ffamily%3DCabin%2BSketch;sketchStyle=rough;fontColor=default;labelPosition=left;fontSize=24;" vertex="1" parent="1">
          <mxGeometry x="325" y="460" width="450" height="30" as="geometry" />
        </mxCell>
        <mxCell id="zoR_4AAuzc3p54MubUYO-17" value="Full Screen:&amp;nbsp;&amp;nbsp;&amp;nbsp;&amp;nbsp; " style="rounded=1;fillColor=#F0F2F5;strokeColor=#000000;align=right;verticalAlign=middle;fontStyle=0;fontSize=24;labelPosition=left;verticalLabelPosition=middle;spacingLeft=10;html=1;shadow=0;dashed=0;sketch=1;hachureGap=4;jiggle=2;curveFitting=1;fontFamily=Cabin Sketch;fontSource=https%3A%2F%2Ffonts.googleapis.com%2Fcss%3Ffamily%3DCabin%2BSketch;" vertex="1" parent="1">
          <mxGeometry x="330" y="520" width="30" height="30" as="geometry" />
        </mxCell>
        <mxCell id="zoR_4AAuzc3p54MubUYO-20" value="Options" style="text;html=1;align=center;verticalAlign=middle;whiteSpace=wrap;rounded=0;fontFamily=Cabin Sketch;fontSource=https%3A%2F%2Ffonts.googleapis.com%2Fcss%3Ffamily%3DCabin%2BSketch;fontSize=28;" vertex="1" parent="1">
          <mxGeometry x="520" y="404" width="60" height="30" as="geometry" />
        </mxCell>
        <mxCell id="zoR_4AAuzc3p54MubUYO-22" value="" style="line;strokeWidth=2;html=1;sketch=1;hachureGap=4;jiggle=1;curveFitting=1;fontFamily=Architects Daughter;fontSource=https%3A%2F%2Ffonts.googleapis.com%2Fcss%3Ffamily%3DArchitects%2BDaughter;" vertex="1" parent="1">
          <mxGeometry x="160" y="440" width="780" height="10" as="geometry" />
        </mxCell>
        <mxCell id="zoR_4AAuzc3p54MubUYO-23" value="Return to Title" style="strokeWidth=1;shadow=0;dashed=0;align=center;html=1;shape=mxgraph.mockup.buttons.button;strokeColor=#666666;fontColor=#000000;mainText=;buttonStyle=round;fontSize=17;fontStyle=1;fillColor=#A89F94;whiteSpace=wrap;sketch=1;hachureGap=4;jiggle=2;curveFitting=1;fontFamily=Cabin Sketch;fontSource=https%3A%2F%2Ffonts.googleapis.com%2Fcss%3Ffamily%3DCabin%2BSketch;" vertex="1" parent="1">
          <mxGeometry x="460" y="660" width="150" height="50" as="geometry" />
        </mxCell>
      </root>
    </mxGraphModel>
  </diagram>
</mxfile>
